<?xml version="1.0" encoding="UTF-8"?>
<svg id="Layer_2" data-name="Layer 2" xmlns="http://www.w3.org/2000/svg" viewBox="0 0 48 45">
  <defs>
    <style>
      .cls-1 {
        fill: #96c;
      }
    </style>
  </defs>
  <g id="Layer_1-2" data-name="Layer 1">
    <g>
      <polygon class="cls-1" points="46 0 45 0 44 0 43 0 42 0 41 0 40 0 39 0 38 0 37 0 36 0 35 0 34 0 33 0 32 0 31 0 30 0 29 0 28 0 27 0 26 0 25 0 24 0 23 0 22 0 21 0 20 0 19 0 18 0 17 0 17 0 15 0 15 1 13 1 13 2 12 2 12 3 11 3 11 4 10 4 10 6 9 6 9 9 17 9 17 9 18 9 19 9 20 9 21 9 22 9 23 9 24 9 25 9 26 9 27 9 28 9 29 9 30 9 31 9 32 9 33 9 34 9 35 9 36 9 37 9 38 9 39 9 40 9 41 9 42 9 43 9 44 9 45 9 46 9 47 9 48 9 48 8 48 7 48 6 48 5 48 4 48 3 48 2 48 1 48 0 47 0 46 0"/>
      <polygon class="cls-1" points="39 25 39 24 39 23 39 22 39 21 39 20 39 19 39 18 38 18 37 18 36 18 35 18 34 18 33 18 32 18 31 18 30 18 29 18 28 18 27 18 26 18 25 18 24 18 23 18 22 18 21 18 20 18 19 18 18 18 17 18 16 18 15 18 14 18 13 18 12 18 11 18 10 18 9 18 9 19 9 20 9 21 9 22 9 23 9 24 9 25 9 26 9 27 10 27 11 27 12 27 13 27 14 27 15 27 16 27 17 27 18 27 19 27 20 27 21 27 22 27 23 27 24 27 25 27 26 27 27 27 28 27 29 27 30 27 31 27 32 27 33 27 34 27 35 27 36 27 37 27 38 27 39 27 39 26 39 25"/>
      <polygon class="cls-1" points="37 36 36 36 35 36 34 36 33 36 32 36 31 36 30 36 29 36 28 36 27 36 26 36 25 36 24 36 23 36 22 36 21 36 20 36 19 36 18 36 17 36 16 36 15 36 14 36 13 36 12 36 11 36 10 36 9 36 8 36 7 36 6 36 5 36 4 36 3 36 2 36 1 36 0 36 0 37 0 38 0 39 0 40 0 41 0 42 0 43 0 44 0 45 1 45 2 45 3 45 4 45 5 45 6 45 7 45 8 45 9 45 10 45 11 45 12 45 13 45 14 45 15 45 16 45 17 45 18 45 19 45 20 45 21 45 22 45 23 45 24 45 25 45 26 45 27 45 28 45 29 45 30 45 31 45 32 45 33 45 33 44 34 44 35 44 35 43 36 43 36 42 37 42 37 41 38 41 38 40 38 39 39 39 39 38 39 37 39 36 38 36 37 36"/>
      <rect class="cls-1" x="39" y="27" width="9" height="9"/>
      <rect class="cls-1" y="9" width="9" height="9"/>
    </g>
  </g>
</svg>