<?xml version="1.0" encoding="UTF-8"?>
<svg id="Layer_2" data-name="Layer 2" xmlns="http://www.w3.org/2000/svg" viewBox="0 0 120 22.68">
  <defs>
    <style>
      .cls-1 {
        fill: #96c;
      }
    </style>
  </defs>
  <g id="Layer_1-2" data-name="Layer 1">
    <g>
      <path d="M35.73,19.56c-1.34,0-2.49-.24-3.43-.73-.94-.49-1.75-1.15-2.42-1.97l1.79-1.67c.57.69,1.19,1.21,1.87,1.56.68.35,1.46.53,2.33.53,1.02,0,1.79-.23,2.31-.69.52-.46.78-1.08.78-1.86,0-.63-.18-1.12-.55-1.49s-1.02-.64-1.95-.82l-1.42-.25c-1.56-.29-2.73-.8-3.51-1.54-.78-.73-1.17-1.74-1.17-3.02,0-.7.13-1.34.4-1.91.27-.57.64-1.05,1.12-1.44.48-.39,1.07-.69,1.75-.91.69-.21,1.46-.32,2.31-.32,1.21,0,2.25.21,3.14.63.89.42,1.64,1.03,2.27,1.82l-1.81,1.6c-.41-.53-.92-.96-1.51-1.28-.6-.32-1.34-.48-2.22-.48s-1.63.18-2.13.55-.76.9-.76,1.6.21,1.17.62,1.5c.41.33,1.05.58,1.93.74l1.42.3c1.6.31,2.78.82,3.52,1.56.74.73,1.11,1.74,1.11,3.02,0,.75-.13,1.43-.39,2.04-.26.61-.64,1.13-1.13,1.57-.5.44-1.1.77-1.82,1.01-.72.24-1.54.36-2.45.36Z"/>
      <path d="M46.78,19.29c-.87,0-1.53-.23-1.97-.68-.44-.45-.66-1.09-.66-1.91v-7.29h-1.86v-2.04h1.01c.41,0,.7-.09.86-.28.16-.18.24-.48.24-.89v-2.09h2.25v3.25h2.5v2.04h-2.5v7.84h2.31v2.04h-2.18Z"/>
      <path d="M60.08,19.29c-.66,0-1.16-.19-1.51-.56-.35-.37-.57-.85-.64-1.43h-.11c-.23.75-.65,1.31-1.26,1.7-.61.38-1.35.57-2.22.57-1.24,0-2.19-.32-2.85-.96-.66-.64-1-1.5-1-2.59,0-1.19.43-2.09,1.29-2.68.86-.6,2.13-.89,3.79-.89h2.15v-1.01c0-.73-.2-1.3-.6-1.7-.4-.4-1.02-.6-1.86-.6-.7,0-1.28.15-1.72.46-.44.31-.82.7-1.12,1.17l-1.49-1.35c.4-.67.95-1.23,1.67-1.66.72-.44,1.66-.65,2.82-.65,1.54,0,2.73.36,3.55,1.08.82.72,1.24,1.75,1.24,3.09v5.98h1.26v2.04h-1.4ZM55.03,17.66c.78,0,1.42-.17,1.92-.52.5-.34.76-.81.76-1.39v-1.72h-2.11c-1.73,0-2.59.53-2.59,1.6v.41c0,.53.18.94.54,1.2.36.27.85.4,1.48.4Z"/>
      <path d="M66.37,19.29c-.87,0-1.53-.23-1.97-.68-.44-.45-.66-1.09-.66-1.91v-7.29h-1.86v-2.04h1.01c.41,0,.7-.09.86-.28.16-.18.24-.48.24-.89v-2.09h2.25v3.25h2.5v2.04h-2.5v7.84h2.31v2.04h-2.18Z"/>
      <path d="M72.35,5.24c-.52,0-.9-.12-1.13-.37-.24-.24-.36-.56-.36-.94v-.39c0-.38.12-.7.36-.94.24-.24.61-.37,1.13-.37s.89.12,1.12.37c.23.24.34.56.34.94v.39c0,.38-.11.7-.34.94-.23.24-.6.37-1.12.37ZM71.09,7.37h2.5v11.92h-2.5V7.37Z"/>
      <path d="M75.95,2.33h2.5v10.4h.11l1.65-2.13,2.86-3.23h2.91l-4.17,4.61,4.67,7.31h-2.98l-3.41-5.68-1.65,1.79v3.9h-2.5V2.33Z"/>
      <path d="M91.72,19.56c-1.13,0-2.08-.2-2.84-.6-.76-.4-1.43-.95-1.99-1.65l1.6-1.47c.44.53.94.95,1.48,1.25.54.3,1.17.45,1.89.45s1.28-.14,1.64-.42c.36-.28.54-.68.54-1.18,0-.38-.13-.71-.38-.97-.25-.27-.69-.44-1.32-.52l-1.1-.14c-1.22-.15-2.18-.51-2.88-1.07-.7-.56-1.04-1.39-1.04-2.49,0-.58.11-1.1.32-1.55.21-.45.52-.83.91-1.15.39-.31.86-.55,1.4-.72.54-.17,1.14-.25,1.8-.25,1.07,0,1.94.17,2.62.5.68.34,1.29.8,1.82,1.4l-1.54,1.47c-.31-.37-.71-.68-1.2-.95-.5-.27-1.07-.4-1.71-.4-.69,0-1.2.14-1.52.41-.33.28-.49.63-.49,1.08s.14.8.44,1.03c.29.23.76.4,1.4.5l1.1.14c1.31.2,2.27.58,2.88,1.16.6.57.91,1.34.91,2.3,0,.58-.11,1.1-.33,1.57-.22.47-.54.87-.95,1.2-.41.34-.91.6-1.49.78-.58.18-1.23.27-1.95.27Z"/>
      <path d="M103.12,19.56c-.82,0-1.58-.15-2.26-.44-.68-.29-1.26-.71-1.73-1.25-.47-.54-.84-1.2-1.1-1.97-.26-.77-.39-1.63-.39-2.58s.13-1.81.39-2.58c.26-.77.63-1.43,1.1-1.97.47-.54,1.05-.96,1.73-1.25.68-.29,1.43-.44,2.26-.44s1.58.15,2.26.44c.68.29,1.26.71,1.73,1.25.47.54.84,1.2,1.1,1.97.26.77.39,1.63.39,2.58s-.13,1.81-.39,2.58c-.26.77-.63,1.43-1.1,1.97-.47.54-1.05.96-1.73,1.25-.68.29-1.43.44-2.26.44ZM103.12,17.48c.86,0,1.54-.26,2.06-.79.52-.52.78-1.31.78-2.36v-2.01c0-1.05-.26-1.83-.78-2.36-.52-.52-1.21-.79-2.06-.79s-1.54.26-2.06.79c-.52.52-.78,1.31-.78,2.36v2.01c0,1.05.26,1.83.78,2.36.52.52,1.21.79,2.06.79Z"/>
      <path d="M110.17,19.29V7.37h2.5v1.97h.11c.26-.64.65-1.18,1.18-1.6.53-.43,1.25-.64,2.17-.64,1.22,0,2.17.4,2.85,1.2.68.8,1.02,1.94,1.02,3.43v7.56h-2.5v-7.24c0-1.86-.75-2.8-2.25-2.8-.32,0-.64.04-.95.13-.31.08-.59.21-.84.38-.24.17-.44.38-.58.64-.15.26-.22.57-.22.92v7.97h-2.5Z"/>
      <path class="cls-1" d="M4.54,2.1v2.43h17.22V0H6.64c-1.16,0-2.1.94-2.1,2.1Z"/>
      <path class="cls-1" d="M0,22.68h15.12c1.16,0,2.11-.94,2.11-2.11v-2.43H0v4.54Z"/>
      <rect class="cls-1" x="4.54" y="9.07" width="12.69" height="4.54"/>
      <rect class="cls-1" x="17.22" y="13.61" width="4.54" height="4.54"/>
      <rect class="cls-1" y="4.54" width="4.54" height="4.54"/>
    </g>
  </g>
</svg>